<svg width="13" height="14" viewBox="0 0 13 14" fill="none" xmlns="http://www.w3.org/2000/svg">
<path d="M6.45833 0C4.73244 0 3.33333 1.39911 3.33333 3.125C3.33333 4.85089 4.73244 6.25 6.45833 6.25C8.18422 6.25 9.58333 4.85089 9.58333 3.125C9.58333 1.39911 8.18422 0 6.45833 0Z" fill="white"/>
<path d="M3.125 7.91667C1.39911 7.91667 0 9.31578 0 11.0417V12.0319C0 12.6596 0.454903 13.1948 1.07439 13.2959C4.64008 13.8781 8.27658 13.8781 11.8423 13.2959C12.4618 13.1948 12.9167 12.6596 12.9167 12.0319V11.0417C12.9167 9.31578 11.5176 7.91667 9.79167 7.91667H9.50761C9.35387 7.91667 9.20109 7.94098 9.05494 7.9887L8.33368 8.22421C7.11511 8.62212 5.80156 8.62212 4.58299 8.22421L3.86173 7.9887C3.71558 7.94098 3.5628 7.91667 3.40906 7.91667H3.125Z" fill="white"/>
</svg>
